<?xml version="1.0" encoding="utf-8"?>
<!-- Generator: Adobe Illustrator 19.1.0, SVG Export Plug-In . SVG Version: 6.00 Build 0)  -->
<svg version="1.1" id="Layer_1" xmlns="http://www.w3.org/2000/svg" xmlns:xlink="http://www.w3.org/1999/xlink" x="0px" y="0px"
	 viewBox="0 0 100 100" style="enable-background:new 0 0 100 100;" xml:space="preserve">
<style type="text/css">
	.st0{fill:#414042;}
</style>
<path class="st0" d="M93,0H7C3.1,0,0,3.1,0,7v86c0,3.9,3.1,7,7,7h86c3.9,0,7-3.1,7-7V7C100,3.1,96.9,0,93,0z M29.7,85.2H14.8V37.5
	h14.8V85.2z M22.2,31c-4.8,0-8.6-3.9-8.6-8.6c0-4.7,3.8-8.6,8.6-8.6c4.7,0,8.6,3.9,8.6,8.6C30.8,27.1,27,31,22.2,31z M85.2,85.2
	H70.4V62c0-5.5-0.1-12.7-7.7-12.7c-7.7,0-8.9,6-8.9,12.3v23.6H39V37.5h14.2V44h0.2c2-3.8,6.8-7.7,14-7.7c15,0,17.8,9.9,17.8,22.7
	V85.2z"/>
</svg>
