<?xml version="1.0" encoding="utf-8"?>
<!-- Generator: Adobe Illustrator 19.1.0, SVG Export Plug-In . SVG Version: 6.00 Build 0)  -->
<svg version="1.1" id="Layer_1" xmlns="http://www.w3.org/2000/svg" xmlns:xlink="http://www.w3.org/1999/xlink" x="0px" y="0px"
	 viewBox="0 0 100 100" style="enable-background:new 0 0 100 100;" xml:space="preserve">
<style type="text/css">
	.st0{fill:#414042;}
</style>
<path class="st0" d="M93,0H7C3.1,0,0,3.1,0,7v86c0,3.9,3.1,7,7,7h86c3.9,0,7-3.1,7-7V7C100,3.1,96.9,0,93,0z M77.8,35.7
	c0,0.6,0,1.2,0,1.9c0,19-14.4,40.9-40.9,40.9c-8.1,0-15.7-2.4-22-6.5c1.1,0.1,2.3,0.2,3.4,0.2c6.7,0,12.9-2.3,17.8-6.1
	c-6.3-0.1-11.6-4.3-13.4-10c0.9,0.2,1.8,0.3,2.7,0.3c1.3,0,2.6-0.2,3.8-0.5c-6.6-1.3-11.5-7.1-11.5-14.1c0-0.1,0-0.1,0-0.2
	c1.9,1.1,4.2,1.7,6.5,1.8c-3.9-2.6-6.4-7-6.4-12c0-2.6,0.7-5.1,1.9-7.2c7.1,8.7,17.7,14.4,29.6,15c-0.2-1.1-0.4-2.1-0.4-3.3
	c0-7.9,6.4-14.4,14.4-14.4c4.1,0,7.9,1.7,10.5,4.5c3.3-0.6,6.3-1.8,9.1-3.5c-1.1,3.4-3.3,6.2-6.3,7.9c2.9-0.3,5.7-1.1,8.2-2.3
	C83.1,31.2,80.6,33.7,77.8,35.7z"/>
</svg>
