<?xml version="1.0" encoding="utf-8"?>
<!-- Generator: Adobe Illustrator 19.2.1, SVG Export Plug-In . SVG Version: 6.00 Build 0)  -->
<!DOCTYPE svg PUBLIC "-//W3C//DTD SVG 1.1//EN" "http://www.w3.org/Graphics/SVG/1.1/DTD/svg11.dtd">
<svg version="1.1" id="Layer_1" xmlns="http://www.w3.org/2000/svg" xmlns:xlink="http://www.w3.org/1999/xlink" x="0px" y="0px"
	 viewBox="0 0 424.6 141.8" style="enable-background:new 0 0 424.6 141.8;" xml:space="preserve">
<style type="text/css">
	.st0{fill:#414042;}
	.st1{fill:#E36326;}
	.st2{fill:#A6CE38;}
	.st3{fill:#FFCE00;}
	.st4{fill:#A7CF47;}
	.st5{fill:#0CBADA;}
</style>
<path class="st0" d="M111.8,65.1c-4.7-5.1-14.7-1.9-14.7,5.9c0,6.9,9.3,11.2,14.7,5.9l4,7.2c-2.9,1.9-6.4,3.1-10.2,3.1
	c-9.4,0-17.1-7.3-17.1-16.4c0-9,7.7-16.3,17.1-16.3c3.9,0,7.4,1.2,10.3,3.3L111.8,65.1z"/>
<path class="st0" d="M153,70.9c0,9.1-7.6,16.3-17.1,16.3c-9.4,0-17-7.2-17-16.3c0-9,7.6-16.3,17-16.3C145.4,54.5,153,61.8,153,70.9z
	 M144,70.8c0-2.2-0.8-4.3-2.3-5.9c-1.6-1.6-3.5-2.5-5.7-2.5c-2.1,0-4.2,0.9-5.6,2.5c-1.6,1.6-2.4,3.7-2.4,5.9c0,2.3,0.8,4.4,2.4,6
	c1.4,1.6,3.5,2.4,5.6,2.4c2.2,0,4.2-0.9,5.7-2.4C143.2,75.2,144,73.1,144,70.8z"/>
<path class="st1" d="M309.5,70.9c0,9.1-7.6,16.3-17.1,16.3c-9.4,0-17-7.2-17-16.3c0-9,7.6-16.3,17-16.3
	C301.9,54.5,309.5,61.8,309.5,70.9z M300.5,70.8c0-2.2-0.8-4.3-2.3-5.9c-1.6-1.6-3.5-2.5-5.7-2.5c-2.1,0-4.2,0.9-5.6,2.5
	c-1.6,1.6-2.4,3.7-2.4,5.9c0,2.3,0.8,4.4,2.4,6c1.4,1.6,3.5,2.4,5.6,2.4c2.2,0,4.2-0.9,5.7-2.4C299.7,75.2,300.5,73.1,300.5,70.8z"
	/>
<path class="st0" d="M185.4,82.7c-2.9,2.9-7,4.7-11.5,4.7c-9,0-16.3-7.3-16.3-16.4c0-9,7.3-16.4,16.3-16.4c4.4,0,8.5,1.8,11.5,4.7
	V33.1h8.4v53.3h-8.4V82.7z M169.5,76.9c1.5,1.6,3.5,2.4,5.7,2.4c2.1,0,4.2-0.9,5.7-2.4c1.5-1.6,2.4-3.7,2.4-5.9
	c0-2.2-0.9-4.3-2.4-5.9c-1.5-1.6-3.6-2.4-5.7-2.4c-2.1,0-4.2,0.9-5.7,2.4c-1.5,1.6-2.4,3.7-2.4,5.9C167.1,73.1,168,75.3,169.5,76.9z
	"/>
<rect x="201" y="55.5" class="st0" width="9.2" height="30.9"/>
<rect x="201" y="36.1" class="st0" width="9.2" height="10"/>
<path class="st0" d="M220.4,75.8c4.5,5.2,11.4,5.4,11.4,1.5c0-2.3-2.2-3-4.5-3.7c-6-1.9-10.2-3.7-10.2-9.7c0-5.7,5.1-9.4,11-9.4
	c5.3,0,8.2,1.1,12.3,3.7l-4.2,6.5c-6-4.3-10.1-3.9-10.5-0.6c-0.4,2.3,3,2.7,6.6,3.9c4.4,1.3,8.4,4.2,8.4,9.5c0,4.9-5.1,9.7-11.4,9.7
	c-5.6,0-10.9-1.8-14.7-5.6L220.4,75.8z"/>
<path class="st0" d="M268.3,65.1c-4.7-5.1-14.7-1.9-14.7,5.9c0,6.9,9.3,11.2,14.7,5.9l4,7.2c-2.9,1.9-6.4,3.1-10.2,3.1
	c-9.4,0-17.1-7.3-17.1-16.4c0-9,7.7-16.3,17.1-16.3c3.9,0,7.4,1.2,10.3,3.3L268.3,65.1z"/>
<path class="st0" d="M323.6,59c2.9-2.9,7-4.7,11.5-4.7c9,0,16.3,7.4,16.3,16.4c0,9.1-7.3,16.4-16.3,16.4c-4.4,0-8.5-1.7-11.5-4.7
	v26.2h-8.4V55.5h7.7L323.6,59z M339.5,64.9c-1.5-1.6-3.5-2.5-5.7-2.5c-2.1,0-4.2,0.9-5.7,2.5c-1.5,1.6-2.4,3.7-2.4,5.9
	c0,2.3,0.9,4.4,2.4,5.9c1.5,1.6,3.6,2.4,5.7,2.4c2.1,0,4.2-0.9,5.7-2.4c1.5-1.6,2.4-3.7,2.4-5.9C341.9,68.6,341,66.5,339.5,64.9z"/>
<path class="st0" d="M385.5,81.4c-2.9,3.5-7.4,5.7-12.4,5.7c-9,0-16.4-7.4-16.4-16.4c0-9.1,7.4-16.4,16.4-16.4
	c9,0,16.4,7.3,16.4,16.4c0,1-0.1,1.9-0.3,2.9h-23.1c0.4,1.1,1,2.1,1.8,3c1.5,1.6,3.4,2.5,5.5,2.5c1.9,0,3.9-0.9,5.3-2.3L385.5,81.4z
	 M380.8,68.3c-0.4-1.3-1-2.5-1.9-3.5c-1.4-1.6-3.4-2.4-5.4-2.4c-2.1,0-4,0.9-5.5,2.4c-0.9,1-1.5,2.2-1.9,3.5H380.8z"/>
<g>
	<polygon class="st2" points="44.1,86.3 80.7,65.6 77.6,60.1 74.4,65.8 64.3,60.1 37.8,75.1 	"/>
	<polygon class="st3" points="77.6,60.1 80.7,54.6 44.1,34 37.8,45.2 64.3,60.1 74.4,54.5 	"/>
	<polygon class="st4" points="77.6,60.1 74.4,54.5 64.3,60.1 74.4,65.8 	"/>
	<polygon class="st1" points="77.6,60.1 74.4,54.5 64.3,60.1 74.4,65.8 	"/>
	<ellipse transform="matrix(0.8711 -0.4911 0.4911 0.8711 -19.5583 45.7452)" class="st0" cx="77.4" cy="60.1" rx="6.4" ry="6.4"/>
	<ellipse transform="matrix(0.4911 -0.8711 0.8711 0.4911 -31.6233 66.1335)" class="st5" cx="40.8" cy="60.1" rx="6.4" ry="6.4"/>
	<ellipse transform="matrix(0.4911 -0.8711 0.8711 0.4911 4.9546 87.5026)" class="st5" cx="77.4" cy="39.5" rx="6.4" ry="6.4"/>
	<ellipse transform="matrix(0.4911 -0.8711 0.8711 0.4911 -30.9717 108.491)" class="st5" cx="77.4" cy="80.8" rx="6.4" ry="6.4"/>
	<circle class="st0" cx="40.8" cy="80.8" r="6.4"/>
	<ellipse transform="matrix(0.4911 -0.8711 0.8711 0.4911 -13.6601 55.6393)" class="st0" cx="40.8" cy="39.5" rx="6.4" ry="6.4"/>
</g>
</svg>
