<?xml version="1.0" encoding="utf-8"?>
<!-- Generator: Adobe Illustrator 19.1.0, SVG Export Plug-In . SVG Version: 6.00 Build 0)  -->
<svg version="1.1" id="Layer_1" xmlns="http://www.w3.org/2000/svg" xmlns:xlink="http://www.w3.org/1999/xlink" x="0px" y="0px"
	 viewBox="0 0 100 100" style="enable-background:new 0 0 100 100;" xml:space="preserve">
<style type="text/css">
	.st0{fill:#414042;}
</style>
<path class="st0" d="M93,0H7C3.1,0,0,3.1,0,7v86c0,3.9,3.1,7,7,7h46.4V61.3h-13V46.2h13V35.1c0-12.9,7.9-19.9,19.4-19.9
	c5.5,0,10.3,0.4,11.6,0.6v13.5l-8,0c-6.3,0-7.5,3-7.5,7.3v9.6h14.9L82,61.3H69V100h24c3.9,0,7-3.1,7-7V7C100,3.1,96.9,0,93,0z"/>
</svg>
